<?xml version="1.0" encoding="utf-8"?>
<!-- Generator: Adobe Illustrator 20.1.0, SVG Export Plug-In . SVG Version: 6.00 Build 0)  -->
<svg version="1.1" id="Calque_1" xmlns="http://www.w3.org/2000/svg" xmlns:xlink="http://www.w3.org/1999/xlink" x="0px" y="0px"
	 viewBox="0 0 272.1 34.4" style="enable-background:new 0 0 272.1 34.4;" xml:space="preserve">
<style type="text/css">
	.st0{fill:#FFFFFF;}
</style>
<title>Fichier 1</title>
<g id="Calque_2">
	<g id="Calque_1-2">
		<path class="st0" d="M7.6,25.6C8,26.3,8.5,27,9.2,27.5c0.7,0.5,1.5,0.9,2.3,1.1c0.9,0.2,1.8,0.4,2.8,0.4c0.7,0,1.4-0.1,2.1-0.2
			c0.7-0.1,1.4-0.3,2.1-0.6c0.6-0.3,1.2-0.7,1.6-1.3c0.4-0.6,0.7-1.3,0.6-2c0-0.8-0.3-1.6-0.9-2.2c-0.6-0.6-1.4-1.1-2.2-1.4
			c-1-0.4-2.1-0.7-3.1-1c-1.2-0.3-2.4-0.6-3.6-0.9c-1.2-0.3-2.4-0.7-3.6-1.1c-1.1-0.4-2.2-1-3.1-1.7c-0.9-0.7-1.7-1.6-2.2-2.6
			c-0.6-1.2-0.9-2.5-0.9-3.8c0-1.5,0.3-3.1,1.1-4.4C2.9,4.4,3.8,3.3,5,2.4C6.2,1.6,7.6,1,9,0.6C10.4,0.2,11.9,0,13.4,0
			c1.7,0,3.4,0.2,5,0.6c1.5,0.4,2.9,1,4.2,1.9c1.2,0.9,2.2,2,2.9,3.3c0.7,1.5,1.1,3.2,1,4.9h-7c0-0.8-0.2-1.7-0.6-2.4
			c-0.3-0.6-0.8-1.1-1.4-1.5c-0.6-0.4-1.3-0.6-2-0.8c-0.8-0.2-1.6-0.2-2.5-0.2c-0.6,0-1.2,0.1-1.8,0.2c-0.6,0.1-1.1,0.3-1.6,0.7
			C9.3,6.8,8.9,7.2,8.6,7.6C8.3,8.1,8.1,8.7,8.1,9.4c0,0.5,0.1,1.1,0.4,1.6c0.4,0.5,0.9,0.9,1.4,1.1c1,0.4,2,0.8,3,1l5,1.3
			c0.6,0.1,1.5,0.3,2.6,0.7c1.2,0.4,2.2,0.9,3.2,1.6c1.1,0.7,2.1,1.7,2.8,2.8c0.8,1.4,1.2,2.9,1.2,4.5c0,1.4-0.3,2.9-0.9,4.2
			c-0.6,1.3-1.5,2.4-2.6,3.3c-1.3,1-2.7,1.7-4.3,2.2C18,34.2,16,34.4,14,34.4c-1.8,0-3.6-0.2-5.3-0.7c-1.6-0.4-3.2-1.1-4.5-2.1
			c-1.3-0.9-2.4-2.2-3.1-3.6c-0.8-1.6-1.2-3.4-1.1-5.2h7C7,23.8,7.2,24.7,7.6,25.6z"/>
		<path class="st0" d="M47.5,0.8c1.4,0,2.9,0.1,4.3,0.4c1.2,0.2,2.3,0.7,3.3,1.4c0.9,0.6,1.7,1.5,2.1,2.5C57.8,6.3,58,7.6,58,8.9
			c0.1,1.5-0.3,2.9-1.1,4.2c-0.9,1.2-2,2.1-3.3,2.7c1.8,0.4,3.4,1.5,4.5,3.1c1,1.6,1.6,3.4,1.5,5.3c0,1.5-0.3,3-1,4.3
			c-0.6,1.2-1.5,2.2-2.6,3c-1.1,0.8-2.4,1.4-3.7,1.7c-1.4,0.3-2.8,0.5-4.2,0.5H32V0.8H47.5z M46.6,14.1c1.1,0,2.2-0.3,3.2-0.9
			c0.9-0.7,1.3-1.9,1.2-3c0-0.7-0.1-1.3-0.4-1.9c-0.3-0.5-0.6-0.9-1.1-1.2c-0.5-0.3-1-0.5-1.6-0.6c-0.6-0.1-1.3-0.2-1.9-0.1h-6.8
			v7.7L46.6,14.1z M47,28.1c0.7,0,1.3-0.1,2-0.2c0.6-0.1,1.2-0.4,1.7-0.7c0.5-0.3,0.9-0.8,1.2-1.3c0.3-0.7,0.5-1.4,0.4-2.1
			c0.1-1.4-0.4-2.7-1.4-3.6c-1.1-0.8-2.4-1.2-3.8-1.2h-7.9v9L47,28.1z"/>
		<path class="st0" d="M74.7,6.9V0.8h27v6.1h-9.9v26.8h-7.2V6.9H74.7z"/>
		<path class="st0" d="M123.2,0.8c1.4,0,2.7,0.2,4,0.7c1.1,0.5,2.1,1.1,3,2c0.8,0.8,1.5,1.8,1.9,2.9c0.5,1.1,0.7,2.3,0.7,3.5
			c0,1.7-0.4,3.5-1.2,5c-0.9,1.5-2.3,2.6-4,3.2v0.1c0.8,0.2,1.6,0.6,2.2,1.1c0.6,0.5,1.1,1.1,1.4,1.8c0.4,0.7,0.7,1.5,0.8,2.3
			c0.2,0.8,0.3,1.7,0.4,2.5c0,0.5,0,1.1,0.1,1.8s0.1,1.4,0.2,2.2c0.1,0.7,0.2,1.4,0.4,2.1c0.1,0.6,0.4,1.2,0.8,1.7h-7.2
			c-0.4-1.2-0.7-2.5-0.7-3.7c-0.1-1.4-0.2-2.8-0.4-4.1c-0.1-1.4-0.6-2.7-1.5-3.8c-1.1-0.9-2.5-1.3-3.9-1.2h-7.2v12.9h-7.2V0.8H123.2
			z M120.6,15.7c1.3,0.1,2.7-0.3,3.7-1.1c0.9-1,1.4-2.3,1.2-3.6c0.1-1.3-0.3-2.6-1.2-3.5c-1.1-0.8-2.4-1.2-3.7-1.1h-7.9v9.3
			L120.6,15.7z"/>
		<path class="st0" d="M146,0.8v32.9h-7.2V0.8H146z"/>
		<path class="st0" d="M167.8,0.8c1.4,0,2.9,0.1,4.3,0.4c1.2,0.2,2.3,0.7,3.3,1.4c0.9,0.6,1.7,1.5,2.1,2.5c0.5,1.2,0.8,2.5,0.8,3.9
			c0.1,1.5-0.3,2.9-1.1,4.1c-0.9,1.2-2,2.1-3.3,2.7c1.8,0.4,3.4,1.5,4.5,3.1c1,1.6,1.6,3.4,1.5,5.3c0,1.5-0.3,3-1,4.3
			c-0.6,1.2-1.5,2.2-2.6,3c-1.1,0.8-2.4,1.4-3.7,1.7c-1.4,0.4-2.9,0.6-4.3,0.5h-16V0.8H167.8z M166.9,14.1c1.1,0,2.2-0.3,3.2-0.9
			c0.9-0.7,1.3-1.9,1.2-3c0-0.7-0.1-1.3-0.4-1.9c-0.3-0.5-0.6-0.9-1.1-1.2c-0.5-0.3-1-0.5-1.6-0.6c-0.6-0.1-1.2-0.2-1.9-0.2h-6.8
			v7.7L166.9,14.1z M167.3,28.1c0.7,0,1.3-0.1,2-0.2c0.6-0.1,1.2-0.4,1.7-0.7c0.5-0.3,0.9-0.8,1.2-1.3c0.3-0.7,0.5-1.4,0.4-2.1
			c0.1-1.4-0.4-2.7-1.4-3.6c-1.1-0.8-2.4-1.2-3.7-1.2h-7.9v9L167.3,28.1z"/>
		<path class="st0" d="M209,31.2c-2.5,2.2-5.9,3.3-10.3,3.3c-4.4,0-7.9-1.1-10.4-3.2c-2.4-2.2-3.7-5.5-3.7-10V0.8h7.2v20.5
			c0,0.9,0.1,1.8,0.2,2.6c0.3,1.7,1.4,3.2,3,3.9c1.1,0.5,2.3,0.7,3.5,0.6c2.6,0,4.4-0.6,5.4-1.7c1-1.2,1.5-3,1.5-5.4V0.8h7.2v20.5
			C212.7,25.7,211.5,29,209,31.2z"/>
		<path class="st0" d="M216.4,6.9V0.8h27v6.1h-9.9v26.8h-7.2V6.9H216.4z"/>
		<path class="st0" d="M271.8,0.8v6.1h-17.4v7.1h16v5.6h-16v8.1h17.8v6.1h-25V0.8H271.8z"/>
	</g>
</g>
</svg>
