<svg xmlns="http://www.w3.org/2000/svg" viewBox="0 0 475.44 69.74"><title>Fichier 1</title><g id="Calque_2" data-name="Calque 2"><g id="svg3400"><g id="layer1"><path id="path3898" d="M43,14.44s-1.47-3-2-4c-3.34-6.61-3.26-7-6.64-7.41C33.44,2.93,33,2.81,33,2.35V.25l.28-.2H52.89l.52.17V2.3c0,.48-.34.72-1,.72L51,3.22c-3.6.28-3,1.75-.62,6.52L73,56.2l.78.21L94,8.57c.7-1.93.59-3.3-.31-4.1s-1.54-1.25-3.88-1.34L87.9,3a1.11,1.11,0,0,1-.66-.24.69.69,0,0,1-.32-.58v-2l.29-.2H110l.23.2v2c0,.54-.31.81-.92.81q-4.48.2-6.63,1.94a11.3,11.3,0,0,0-3.36,4.85S80.77,52.24,74.43,66.35c-2.43,4.62-4.82,4.2-6.92-.13-4.44-9.14-16.93-36.85-16.93-36.85L43,14.44Z"/><path id="path3900" d="M79.38,0S66.56,0,60.86,0l-.28.2v2a.68.68,0,0,0,.31.58,1.09,1.09,0,0,0,.66.24l.92.1c2.33.1,3.4.71,3.72,1.09.56.68.83,1.42-.52,4.36L41.75,56.28l-.63-.16S24,20,19,7.91a8.18,8.18,0,0,1-.75-2.75q0-1.84,3.32-2l2.58-.11c.68,0,1-.26,1-.81v-2L25,.07S4.47,0,.23.07L0,.27V2.35c0,.38.48.61,1.43.71q3.91.21,5.14,1.25c.82.7,1.69,2.47,2.84,5.22,6.23,15,19.46,41.66,25.9,56.86,1.86,4.15,4.19,4.8,7-.13,4.9-9.1,18.2-36.87,18.2-36.87L71,9.81C72.23,7.75,73.4,5.9,74,5c1.09-1.57,1.7-1.87,4.69-2,.61,0,.92-.27.92-.82v-2L79.38,0Z"/><path id="path3904" d="M118.33,61.95c0,2.29,1,3.64,4.37,4l2.18.21a.6.6,0,0,1,.62.62v2.18l-.1.21s-7.9-.21-11.13-.21c-2.91,0-11,.21-11,.21l-.21-.21V66.73c0-.42.31-.62.73-.62l2.08-.21c3.43-.31,4.47-2,4.47-4V27.32c0-2.28-1.25-2.92-4.47-3.22l-2.08-.22c-.42,0-.73-.1-.73-.42v-2.4l.1-.21s8.22.21,11.44.21c2.81,0,10.82-.21,10.82-.21l.1.21v2.29c0,.31-.21.52-.62.52l-2.18.21c-3.22.31-4.37,1.14-4.37,3.23V61.95Z"/><path id="path3906" d="M149,61.95c0,2.29,1.35,3.43,4.37,4l1.14.21c.31.1.62.2.62.62v2.18l-.1.21s-6.55-.21-9.67-.21c-2.91,0-11.44.21-11.44.21l-.21-.21V66.73c0-.42.31-.62.73-.62l2.08-.21c3.12-.31,4.47-2,4.47-4V27.32c0-2.28-1.14-2.92-4.47-3.22l-2.08-.22c-.42,0-.73-.1-.73-.42v-2.4l.1-.21s8.53.21,11.75.21c2.92,0,9.46-.21,9.46-.21l.1.21v2.29c0,.31-.21.42-.62.52l-1.14.21c-3.22.62-4.37,1.14-4.37,3.23V43c3.43,0,5.41-1.76,10-6.66,4.16-4.58,7.38-8.42,7.38-10.4,0-.84-.94-1.77-3-2.08-.42-.1-.62-.21-.62-.52V21l.1-.1s8.42.21,11.44.21c2.7,0,7.28-.21,7.28-.21l.31.1v2.4c0,.31-.31.52-.83.52-4.06.31-6.86.52-10.61,4.78L161.5,39c-1.77,1.88-2.39,3-2.39,3.85a3,3,0,0,0,.94,1.76l15.7,18.93C177,65,179.5,65.58,181.58,66l.52.1c.31.1.73.31.73.62V68.9l-.31.1s-5.51-.1-8.42-.1c-2.6,0-6.34.1-6.34.1l-.1-.1V67.65a5.38,5.38,0,0,0-1.56-4.16L154.54,49.14a6,6,0,0,0-5.51-2.6v15.4h0Z"/><path id="path3908" d="M205.09,61.95c0,2.29,1,3.64,4.37,4l2.18.21a.6.6,0,0,1,.62.62v2.18l-.1.21s-7.9-.21-11.13-.21c-2.91,0-11,.21-11,.21l-.21-.21V66.73c0-.42.31-.62.73-.62l2.08-.21c3.43-.31,4.47-2,4.47-4V27.32c0-2.28-1.25-2.92-4.47-3.22l-2.08-.22c-.42,0-.73-.1-.73-.42v-2.4l.1-.21s8.22.21,11.44.21c2.81,0,10.82-.21,10.82-.21l.1.21v2.29c0,.31-.21.52-.62.52l-2.18.21c-3.22.31-4.37,1.14-4.37,3.23V61.95Z"/><path id="path3910" d="M227.56,27.52c0-3.22-1.35-3.33-6.24-3.64-.62,0-.73-.31-.73-.52V21l.21-.1c1.56,0,7.7.21,10.71.21s7.07-.21,10.92-.21c14.76,0,17.46,7.28,17.46,12.69,0,6.24-3,16-17.78,16a15.88,15.88,0,0,1-6.56-1V62.46c0,2.29,1.25,2.81,4.58,3.33l2.08.31c.42.1.73.21.73.62v2.18l-.1.21s-8.32-.21-11.54-.21c-2.91,0-10.71.21-10.71.21l-.1-.21V66.73c0-.42.21-.52.62-.62l2.18-.31c3.22-.42,4.26-1.35,4.26-3.33V27.52h0Zm8,18.1a18.9,18.9,0,0,0,6.76.94c6.24,0,9.25-3.75,9.25-11.75,0-8.94-4.06-10.92-9.77-10.92-5,0-6.24.94-6.24,3.64v18.1Z"/><path id="path3912" d="M277.81,68.92c-3.12,0-10.29.21-10.29.21l-.11-.21V66.63c0-.2.11-.52.62-.52l2.4-.21c3.23-.31,4.16-2.39,4.16-4.47V27.11c0-2.4-1.25-2.81-4.16-3l-2.4-.22c-.62-.1-.62-.31-.62-.42v-2.4l.11-.21s8.11.21,11.23.21H294c3.12,0,10.51-.21,10.51-.21l.21.21a76.31,76.31,0,0,0,1.56,12.48l-2.6.42c-1.14-3.85-3.12-9.36-9.77-9.36h-8.32c-2,0-3,.73-3,2.49V42.19h7.8c2.92,0,3.64-1.25,4.06-3.33l.62-2.18c0-.31.21-.52.62-.52h1.76c.21,0,.21.11.21.31-.21,2.29-.62,5.2-.62,7.7s.42,4.78.62,7.18l-.21.21h-1.76c-.52,0-.73-.21-.73-.52l-.52-2.28c-.42-2.08-1.35-3.23-4.06-3.23H282.6V61.43c0,2,1.14,3.95,3,3.95h9.88c5.3,0,8.22-3.33,9.46-8.74l2.6.31-2.08,12-.21.21s-6.14-.21-9.26-.21h-18.2Z"/><path id="path3914" d="M316.92,66.11l2.39-.21c3.12-.31,4.16-1.25,4.16-4.47V27.11c0-2.71-.74-2.71-4.16-3L317,23.88c-.42,0-.74-.21-.74-.52V21.07l.1-.21s9.16.21,11,.21,11-.21,13.73-.21c17.37,0,25.9,10.82,25.9,24.65,0,18.2-12.9,23.6-24.44,23.6-8.32,0-12-.21-15.18-.21s-11,.21-11,.21l-.1-.21V66.73a.59.59,0,0,1,.62-.61Zm23.2,0c11.44,0,17.89-4.26,17.89-18.83,0-10.81-2.4-23.4-19.87-23.4-4.06,0-6.66.62-6.66,3.23V61.43c0,2.9.72,4.68,8.63,4.68Z"/><path id="path3916" d="M391.61,61.95c0,2.29,1,3.64,4.37,4l2.18.21a.6.6,0,0,1,.62.62v2.18l-.1.21s-7.9-.21-11.12-.21c-2.92,0-11,.21-11,.21l-.21-.21V66.73c0-.42.31-.62.73-.62l2.08-.21c3.43-.31,4.47-2,4.47-4V27.32c0-2.28-1.25-2.92-4.47-3.22l-2.08-.22c-.42,0-.73-.1-.73-.42v-2.4l.1-.21s8.22.21,11.43.21c2.81,0,10.82-.21,10.82-.21l.1.21v2.29c0,.31-.21.52-.62.52l-2.18.21c-3.22.31-4.37,1.14-4.37,3.23V61.95h0Z"/><path id="path3918" d="M423.65,65.9l3,.21a.82.82,0,0,1,.83.83v2l-.21.21s-11.34-.21-13.83-.21c-2.71,0-9.36.21-9.36.21l-.21-.21v-2a.77.77,0,0,1,.84-.83c4.58-.31,7.17-1.15,10.08-7.8L437.89,4.23c1.14-2.7,2-3.75,3.54-3.75s2,1,2.8,3.12L465.55,60c1.46,4.06,3.54,5.62,7.7,6l1.14.1a.94.94,0,0,1,1,.84v2l-.31.21s-8-.21-12.06-.21c-3.64,0-13.84.21-13.84.21l-.1-.21v-2c0-.52.21-.84.74-.84l2.91-.21c3.95-.31,5.41-1.56,4.37-4.47L450.8,43.84H429.16c-2.5,0-3.12.42-3.64,1.76l-6,15.08c-1,2.61.31,4.9,4.16,5.21Zm25.48-26.42L439,11.71h-.21l-10.4,26.42c-.42,1,.31,1.35,2.6,1.35h18.1Z"/></g></g></g></svg>